<svg width="169" height="43" viewBox="0 0 169 43" fill="none" xmlns="http://www.w3.org/2000/svg">
<path d="M37.6313 33.4341H57.9624V28.4467H42.5474V19.2129H55.7334V14.2255H42.5474V4.99172H57.9624V0H37.6313V33.4341Z" fill="#00003B"/>
<path d="M89.418 10.1004C88.3996 9.30747 87.4998 8.93916 86.5878 8.93916H83.1441C82.3261 8.93916 81.3608 9.23814 80.3261 9.81878C79.6553 10.2911 78.4774 11.123 77.729 11.8207C77.6104 11.656 77.4959 11.487 77.3854 11.3224C77.0623 10.8457 76.7597 10.3994 76.3711 10.0614C75.5531 9.34647 74.4448 8.93483 73.3364 8.93483C73.2546 8.93483 73.1769 8.93916 73.1115 8.93916H70.0277C68.9397 8.93916 67.7128 9.55013 66.2895 10.8024L66.1218 9.21214H61.4183L61.811 13.9395V33.4341H66.5226V16.4701C67.1033 15.7421 68.7189 13.7446 69.8232 13.6536H72.547C72.8374 13.6536 73.0174 13.6709 73.0951 13.7142C73.7658 14.1215 74.6902 15.1008 75.0869 15.8288C75.0992 15.8548 75.1278 15.9891 75.1278 16.2274V33.4341H79.7862V16.1408C80.4243 15.3608 82.551 13.6536 83.2954 13.6536H85.6103C85.8107 13.6536 86.0724 13.7099 86.1583 13.7662C86.825 14.1692 87.7084 15.1051 88.1011 15.8288C88.1133 15.8548 88.1419 15.9891 88.1419 16.2274V33.4341H92.8495V16.1191C92.8495 14.7975 92.5509 13.6839 91.9579 12.7956C91.5489 12.189 90.2401 10.7374 89.418 10.1004Z" fill="#00003B"/>
<path d="M114.702 12.8519C114.285 12.241 112.98 10.7894 112.158 10.1524C111.176 9.4028 109.761 8.93916 108.457 8.93916H104.444C103.275 8.93916 101.982 9.57612 100.604 10.8371L100.436 9.21214H95.7288L96.1214 13.9395V42.4903H100.829V32.0605C101.827 32.9011 103.127 33.7071 104.444 33.7071H108.457C109.827 33.7071 111.209 33.2738 112.158 32.5458C112.935 31.9435 114.256 30.4529 114.702 29.7986C115.479 28.698 115.643 27.3504 115.643 26.4188V16.2274C115.643 14.9232 115.328 13.7879 114.702 12.8519ZM110.935 26.3062C110.935 26.5098 110.915 26.6312 110.898 26.6832L110.882 26.7222C110.477 27.4674 109.487 28.542 108.915 28.8974C108.772 28.9494 108.661 28.9884 108.408 28.9884H104.6C103.753 28.9884 101.446 26.9995 100.833 26.1329V16.4614C101.479 15.6034 103.794 13.6536 104.6 13.6536H108.408C108.575 13.6536 108.669 13.6926 108.78 13.7402C108.829 13.7619 108.87 13.7792 108.853 13.7662C109.52 14.1692 110.506 15.2135 110.898 15.9328C110.911 15.9631 110.939 16.0931 110.939 16.3314V26.3062H110.935Z" fill="#00003B"/>
<path d="M123.823 0.00433325H119.119V26.1459C119.119 27.4414 119.434 28.5767 120.056 29.5257C120.502 30.1756 121.819 31.6619 122.6 32.2728C123.553 33.0008 124.939 33.4341 126.301 33.4341H130.563V28.7154H126.358C126.117 28.7154 125.859 28.6287 125.806 28.6027C125.144 28.1997 124.26 27.2638 123.88 26.5618L123.868 26.5402C123.855 26.4838 123.823 26.3148 123.823 26.0375V13.9265H130.612V9.21214H123.823V0.00433325Z" fill="#00003B"/>
<path d="M152.693 12.7956C152.276 12.1846 150.971 10.7374 150.145 10.0961C149.209 9.38113 147.773 8.93483 146.391 8.93483H141.25C139.867 8.93483 138.432 9.38113 137.495 10.0961C136.677 10.7331 135.368 12.1846 134.947 12.7999C134.358 13.6839 134.064 14.7975 134.064 16.1191V26.5228C134.064 27.8444 134.362 28.9624 134.951 29.8463C135.368 30.4529 136.677 31.9045 137.499 32.5458C138.436 33.2608 139.871 33.7028 141.25 33.7028H146.391C147.773 33.7028 149.209 33.2608 150.145 32.5415C150.967 31.9045 152.272 30.4529 152.693 29.842C153.282 28.958 153.577 27.8401 153.577 26.5228V16.1191C153.585 14.8018 153.286 13.6839 152.693 12.7956ZM148.877 26.8218C148.849 27.2205 147.462 28.4857 146.853 28.8454C146.808 28.8627 146.763 28.88 146.718 28.8974C146.608 28.9494 146.509 28.9884 146.346 28.9884H141.356C141.188 28.9884 141.09 28.9494 140.984 28.8974C140.947 28.88 140.914 28.867 140.91 28.867H140.906C140.219 28.4467 139.201 27.5108 138.816 26.8131C138.804 26.7872 138.775 26.6528 138.775 26.4145V16.2274C138.775 15.9328 138.824 15.8331 138.833 15.8071C139.201 15.1225 140.227 14.1822 140.853 13.7966C140.898 13.7792 140.939 13.7619 140.988 13.7402C141.098 13.6926 141.192 13.6536 141.36 13.6536H146.35C146.518 13.6536 146.616 13.6926 146.722 13.7402C146.771 13.7619 146.808 13.7792 146.792 13.7662C147.483 14.1865 148.509 15.1268 148.857 15.7638C148.861 15.7811 148.882 15.8721 148.882 16.2274V26.8218H148.877Z" fill="#00003B"/>
<path d="M168.673 8.94783C168.542 8.93916 168.411 8.93483 168.276 8.93483H165.446C163.953 8.93483 162.509 9.97477 161.65 10.7374L161.483 9.20781H156.783L157.172 13.9395V33.4341H161.883V16.3487C162.472 15.5298 164.73 13.6536 165.597 13.6536H168.37C168.448 13.6536 168.505 13.6622 168.546 13.6752L169 13.8269V8.96949L168.673 8.94783Z" fill="#00003B"/>
<path d="M23.513 16.7171C23.513 17.7007 22.7605 18.5023 21.832 18.5023H3.99177C3.57051 18.9443 2.98974 19.2086 2.35171 19.2086C1.05111 19.2086 0 18.095 0 16.7171C0 15.3435 1.05111 14.2255 2.35171 14.2255C2.99383 14.2255 3.57051 14.4985 3.99586 14.9362H21.832C22.7605 14.9362 23.513 15.7291 23.513 16.7171Z" fill="#FF088A"/>
<path d="M25.8648 2.49586C25.8648 3.86945 24.8096 4.98738 23.5131 4.98738C22.871 4.98738 22.2902 4.7144 21.8649 4.27242H10.4949L6.57671 8.1722H16.0653C16.4907 7.73023 17.0715 7.45724 17.7177 7.45724C19.0142 7.45724 20.0694 8.57518 20.0694 9.94877C20.0694 11.3267 19.0142 12.4403 17.7177 12.4403C17.0715 12.4403 16.4907 12.1673 16.0653 11.7253H2.35181C1.6647 11.7253 1.04712 11.2834 0.793546 10.6031C0.53997 9.9271 0.703567 9.15148 1.20254 8.65751L8.68302 1.20027C8.99795 0.888283 9.40694 0.719293 9.83229 0.719293H21.8649C22.2902 0.272985 22.871 0 23.5172 0C24.8137 0 25.8648 1.11794 25.8648 2.49586Z" fill="#FF088A"/>
<path d="M25.8647 30.9382C25.8647 32.3118 24.8095 33.4298 23.513 33.4298C22.8709 33.4298 22.2901 33.1568 21.8648 32.7148H9.8322C9.40685 32.7148 8.99376 32.5415 8.68293 32.2295L1.20245 24.7766C0.699386 24.2783 0.535789 23.5027 0.793455 22.8267C1.04703 22.1507 1.66461 21.7044 2.35172 21.7044H16.0734C16.4988 21.2625 17.0796 20.9895 17.7258 20.9895C19.0223 20.9895 20.0775 22.1074 20.0775 23.481C20.0775 24.8589 19.0223 25.9725 17.7258 25.9725C17.0796 25.9725 16.4988 25.6995 16.0734 25.2576H6.58479L10.5029 29.1617H21.873C22.2983 28.7197 22.8791 28.4467 23.5212 28.4467C24.8136 28.4511 25.8647 29.5647 25.8647 30.9382Z" fill="#FF088A"/>
</svg>
